<?xml version="1.0" encoding="utf-8"?>
<!-- Generator: Adobe Illustrator 21.0.2, SVG Export Plug-In . SVG Version: 6.00 Build 0)  -->
<svg version="1.1" id="Layer_1" xmlns="http://www.w3.org/2000/svg" xmlns:xlink="http://www.w3.org/1999/xlink" x="0px" y="0px"
	 viewBox="0 0 214 28" enable-background="new 0 0 214 28" xml:space="preserve">
<g>
	<path fill="#F01428" d="M14.8,19.9c0-0.9,0.5-1.1,1.3-0.6c1.6,0.9,3.2,1.8,3.2,1.8c0.1-0.5,0.5-0.9,1.4-0.7
		c0.9,0.2,1.9,0.4,1.9,0.4s-0.5-1.2-0.8-1.7c-0.4-1,0-1.4,0.4-1.6c0,0-0.6-0.4-1-0.7c-0.9-0.6-0.7-1.2,0.2-1.5
		c1.1-0.5,2.5-1.1,2.5-1.1c-0.5-0.3-1-1-0.4-1.9c0.6-0.8,1.4-2,1.4-2s-1.5,0-2.6,0c-0.9,0-1.2-0.8-1.1-1.3c0,0-1.5,1.1-2.6,1.8
		c-0.9,0.6-1.7,0-1.6-1c0.2-1.6,0.4-3.5,0.4-3.5c-0.6,0.4-1.5,0.4-2-0.6c-0.6-1.4-1.4-3-1.4-3s-0.7,1.6-1.4,3
		c-0.4,0.9-1.4,0.9-1.9,0.6c0,0,0.2,1.8,0.4,3.5c0.1,1.1-0.7,1.6-1.6,1C8.7,10.1,7.2,9,7.2,9c0,0.5-0.2,1.3-1.1,1.3
		c-1,0-2.6,0-2.6,0s0.9,1.2,1.5,2c0.6,0.9,0.1,1.6-0.4,1.9c0,0,1.4,0.6,2.5,1.1c0.8,0.4,1,0.9,0.2,1.5c-0.4,0.3-1,0.7-1,0.7
		c0.4,0.1,0.8,0.6,0.4,1.6c-0.2,0.5-0.8,1.7-0.8,1.7s1-0.2,1.9-0.4c0.9-0.2,1.4,0.2,1.4,0.7c0,0,1.6-0.9,3.2-1.8
		c0.9-0.5,1.3-0.3,1.3,0.6v2.2c0,1.3-0.2,2.7-0.7,3.4C7,24.9,1.9,20,1.9,13.6c0-6.6,5.5-12,12.3-12s12.3,5.4,12.3,12
		c0,6.2-4.8,11.2-11,11.9v1.6c7.2-0.7,12.9-6.5,12.9-13.5C28.5,6.1,22.1,0,14.3,0C6.4,0,0,6.1,0,13.6c0,6.6,4.9,12.1,11.5,13.3
		c1.1,0.2,1.8,0.4,2.4,1.1c0.7-1.3,0.9-4,0.9-5.5C14.8,22.5,14.8,19.9,14.8,19.9z"/>
	<path d="M72.3,20.8V6.3h7.1c3.8,0,5.4,1.6,5.6,3.6c0.1,0.9-0.2,1.8-0.8,2.6c-0.6,0.7-0.9,1-2.1,1.6l5.3,6.8h-4l-4.7-6h-3.2v6
		C75.5,20.8,72.3,20.8,72.3,20.8z M75.5,12.9h1.4c3.9,0,4.7-0.6,4.7-2.5c0-1.9-1.7-2.2-4.3-2.2h-1.9L75.5,12.9L75.5,12.9z"/>
	<path d="M40.5,20.8l6.3-14.5h3.9L57,20.8H53L51.3,17h-6.7l-1.7,3.9C42.9,20.8,40.5,20.8,40.5,20.8z M45.5,15h5L48,9.3L45.5,15z"/>
	<rect x="61.5" y="6.3" width="3.4" height="14.5"/>
	<g>
		<path d="M111.7,20.3c-1.6,0.6-3.7,1-6,1c-2.9,0-5.1-0.7-6.7-2.1c-1.6-1.4-2.4-3.2-2.4-5.7c0-2.5,0.8-4.4,2.4-5.7
			c1.6-1.3,3.9-2,6.9-2c1.9,0,3.8,0.2,5.7,0.6l0,2.4c-2.1-0.6-4.1-1-5.6-1c-1.8,0-3.3,0.5-4.3,1.5c-1,1-1.5,2.4-1.5,4.2
			c0,1.8,0.5,3.1,1.6,4.1c1.1,1,2.6,1.5,4.5,1.5c1.7,0,3.7-0.4,5.3-1.1L111.7,20.3C111.7,20.3,111.7,20.3,111.7,20.3z"/>
	</g>
	<path d="M115.8,20.8l6.3-14.5h3.9l6.3,14.5h-3.9l-1.7-3.9H120l-1.7,3.9C118.3,20.8,115.8,20.8,115.8,20.8z M120.9,15h5l-2.5-5.8
		L120.9,15z"/>
	<path d="M157.7,20.8l6.4-14.5h3.9l6.3,14.5h-3.9l-1.7-3.9h-6.7l-1.7,3.9C160.2,20.8,157.7,20.8,157.7,20.8z M162.8,15h5l-2.5-5.8
		L162.8,15z"/>
	<path d="M205.1,9.3l2.5,5.8h-5L205.1,9.3z M203.9,6.3l-6.4,14.5h2.5l1.7-3.9h6.7l1.7,3.9h3.9l-6.3-14.5
		C207.7,6.3,203.9,6.3,203.9,6.3z"/>
	<polygon points="137.2,20.8 137.2,6.3 141.1,6.3 150.1,16.7 150.1,6.3 152.9,6.3 152.9,20.8 149.4,20.8 139.9,10 139.9,20.8 	"/>
	<g>
		<path d="M179,20.8V6.3h7c2.5,0,4.4,0.6,5.8,1.8c1.3,1.2,2,2.9,2,5.2c0,2.4-0.7,4.3-2.2,5.6c-1.4,1.3-3.4,2-6,2H179z M182.4,18.8
			l2.5,0c1.8,0,3.1-0.4,4-1.3c0.9-0.9,1.3-2.2,1.3-4c0-1.4-0.3-2.5-1-3.5c-0.5-0.6-1.1-1.1-1.7-1.3c-0.7-0.2-1.7-0.4-3-0.4l-2.1,0
			L182.4,18.8L182.4,18.8z"/>
	</g>
</g>
</svg>
