<svg xmlns="http://www.w3.org/2000/svg" viewBox="0 0 32 32">
  <path fill="#F01428" d="M16.6 22.6c0-1 .5-1.2 1.5-.7l3.6 2c.1-.6.6-1 1.6-.8 1 .2 2.1.5 2.1.5s-.6-1.3-.9-1.9c-.5-1.1 0-1.6.5-1.8 0 0-.7-.5-1.1-.8-1-.7-.7-1.3.2-1.7 1.3-.5 2.9-1.3 2.9-1.3-.5-.3-1.1-1.1-.4-2.1.6-1 1.6-2.3 1.6-2.3h-2.9c-1 0-1.3-.8-1.3-1.4 0 0-1.7 1.2-2.9 2-1 .7-2 0-1.8-1.2.2-1.8.5-3.9.5-3.9-.6.4-1.7.4-2.2-.6-.8-1.4-1.6-3.2-1.6-3.2s-.8 1.8-1.5 3.3c-.5 1-1.6 1-2.2.6 0 0 .2 2 .5 3.9.2 1.2-.8 1.9-1.8 1.2-1.2-.8-2.9-2-2.9-2 0 .6-.2 1.4-1.3 1.4H3.9s1 1.3 1.6 2.3c.7 1 .1 1.8-.4 2.1 0 0 1.6.7 2.8 1.3.9.4 1.2 1 .2 1.7-.4.3-1.1.7-1.1.7.5.2 1 .7.5 1.8-.3.6-.9 1.9-.9 1.9s1.1-.2 2.1-.5c1.1-.2 1.6.2 1.6.8l3.6-2c1-.5 1.5-.3 1.5.7v2.5c0 1.4-.3 3-.8 3.9-6.8-.8-12.4-6.3-12.4-13.5C2.2 8.1 8.4 2.1 16 2.1s13.8 6 13.8 13.4c0 6.9-5.4 12.6-12.3 13.3v1.8C25.7 30 32 23.4 32 15.5 32 7.1 24.8.3 16 .3S0 7.1 0 15.5c0 7.4 5.5 13.6 12.9 14.9 1.2.2 2 .4 2.7 1.2.8-1.4 1-4.5 1-6.2v-2.8z"/>
</svg>